<?xml version="1.0" encoding="UTF-8"?>
<svg version="1.1" id="outerfoot0" xmlns="http://www.w3.org/2000/svg" xmlns:xlink="http://www.w3.org/1999/xlink" x="0px" y="0px"
         viewBox="0 0 479.999 479.999" xml:space="preserve">
      <path class="footer" d="M316.592,377.691c-5.39-1.208-10.737,2.182-11.945,7.57c-1.208,5.389,2.181,10.737,7.57,11.945
        c38.07,8.534,51.889,21.29,51.889,27.782c0,5.703-9.964,14.825-32.226,22.348C307.715,455.502,275.398,460,240.884,460
        c-34.509,0-66.821-4.498-90.984-12.664c-22.26-7.523-32.224-16.645-32.224-22.348c0-7.152,14.508-18.479,46.362-26.446
        c5.358-1.34,8.615-6.77,7.275-12.128c-1.34-5.357-6.769-8.615-12.127-7.275c-39.665,9.921-61.51,26.204-61.51,45.848
        c0,36.116,72.043,55.012,143.208,55.012c71.173,0,143.223-18.896,143.223-55.012
        C384.106,404.248,360.129,387.451,316.592,377.691z"/>
    </svg>